<svg xmlns="http://www.w3.org/2000/svg" viewBox="0 0 1440 320"><path fill="#273036" fill-opacity="1" d="M0,32L21.8,48C43.6,64,87,96,131,96C174.5,96,218,64,262,69.3C305.5,75,349,117,393,112C436.4,107,480,53,524,32C567.3,11,611,21,655,69.3C698.2,117,742,203,785,208C829.1,213,873,139,916,101.3C960,64,1004,64,1047,80C1090.9,96,1135,128,1178,160C1221.8,192,1265,224,1309,250.7C1352.7,277,1396,299,1418,309.3L1440,320L1440,320L1418.2,320C1396.4,320,1353,320,1309,320C1265.5,320,1222,320,1178,320C1134.5,320,1091,320,1047,320C1003.6,320,960,320,916,320C872.7,320,829,320,785,320C741.8,320,698,320,655,320C610.9,320,567,320,524,320C480,320,436,320,393,320C349.1,320,305,320,262,320C218.2,320,175,320,131,320C87.3,320,44,320,22,320L0,320Z"></path></svg>